# xmcd CD database file
#
# Track frame offsets:
#	150
#	23062
#	41090
#	59042
#	77255
#	88530
#	123150
#	141070
#	158495
#	178607
#
# Disc length: 2523 seconds
#
# Revision: 0
# Processed by: cddbd v1.5.1PL0 Copyright (c) Steve Scherf et al.
# Submitted via: CDex 1.50
#
DISCID=7309d90a
DTITLE=Ahmad Jamal - Alhambra
DYEAR=1961
DGENRE=Jazz
TTITLE0=We kiss in a shadow
TTITLE1=Sweet and Lovely
TTITLE2=The party's over
TTITLE3=Love for sale
TTITLE4=Snow Fall
TTITLE5=Broadway
TTITLE6=Willow weep for me
TTITLE7=Autumn Leaves
TTITLE8=Isn't it romantic
TTITLE9=The Breeze and I
EXTD=YEAR: 1961
EXTT0=
EXTT1=
EXTT2=
EXTT3=
EXTT4=
EXTT5=
EXTT6=
EXTT7=
EXTT8=
EXTT9=
PLAYORDER=
